<svg id="bad-review" xmlns="http://www.w3.org/2000/svg" width="24" height="24" viewBox="0 0 24 24">
  <defs>
    <style>
      .cls-1 {
        fill: #b1b1b1;
      }
    </style>
  </defs>
  <g id="Group_266" data-name="Group 266">
    <g id="Group_265" data-name="Group 265">
      <path id="Path_509" data-name="Path 509" class="cls-1" d="M17.453,0H3.547A3.551,3.551,0,0,0,0,3.547v8.094a3.551,3.551,0,0,0,3.547,3.547H3.7v2.159a.469.469,0,0,0,.8.331l2.49-2.49H8.744a.469.469,0,1,0,0-.937H6.8a.469.469,0,0,0-.331.137L4.638,16.214v-1.5a.469.469,0,0,0-.469-.469H3.547A2.612,2.612,0,0,1,.938,11.641V3.547A2.612,2.612,0,0,1,3.547.938H17.453a2.612,2.612,0,0,1,2.609,2.609V7.594a.469.469,0,0,0,.938,0V3.547A3.551,3.551,0,0,0,17.453,0Z"/>
    </g>
  </g>
  <g id="Group_268" data-name="Group 268" transform="translate(11.668 11.161)">
    <g id="Group_267" data-name="Group 267">
      <path id="Path_510" data-name="Path 510" class="cls-1" d="M249.385,238.1a.469.469,0,0,0-.469.469v.005a.469.469,0,0,0,.938,0v-.005A.469.469,0,0,0,249.385,238.1Z" transform="translate(-248.916 -238.099)"/>
    </g>
  </g>
  <g id="Group_270" data-name="Group 270" transform="translate(10.41 9.823)">
    <g id="Group_269" data-name="Group 269">
      <path id="Path_511" data-name="Path 511" class="cls-1" d="M235.68,213.223a1.489,1.489,0,0,1-1.249-2.043v-.02a1.492,1.492,0,0,0-1.49-1.49H226.4a.469.469,0,0,0-.171.032l-.767.3a.468.468,0,0,0-.468-.448h-2.437a.469.469,0,0,0-.469.469v8.25a.469.469,0,0,0,.469.469H225a.467.467,0,0,0,.355-.163l4.123,4.983a.469.469,0,0,0,.357.17h0a.469.469,0,0,0,.356-.164l.179-.209a2.9,2.9,0,0,0,.417-3.123l-.653-1.379h2.807a1.492,1.492,0,0,0,1.49-1.49v-.02a1.489,1.489,0,0,1,1.249-2.043v-.02a1.486,1.486,0,0,1,0-2.043Zm-11.152,4.139a.468.468,0,0,0,0,.1v.342h-1.5v-7.312h1.5Zm10.215-4.119a.553.553,0,0,1-.553.553h-3.131a.469.469,0,0,0,0,.938h3.131a.553.553,0,0,1,.553.553v.02a.553.553,0,0,1-.553.553h-3.131a.469.469,0,0,0,0,.938h1.881a.553.553,0,0,1,.553.553v.02a.553.553,0,0,1-.553.553h-3.548a.469.469,0,0,0-.424.669l.971,2.048a1.962,1.962,0,0,1-.112,1.881l-4.362-5.272V211.01l1.026-.4h6.449a.553.553,0,0,1,.553.553v.02a.553.553,0,0,1-.553.553h-1.881a.469.469,0,0,0,0,.938h3.131a.553.553,0,0,1,.553.553Z" transform="translate(-222.09 -209.556)"/>
    </g>
  </g>
  <g id="Group_272" data-name="Group 272" transform="translate(3.094 7.125)">
    <g id="Group_271" data-name="Group 271">
      <path id="Path_512" data-name="Path 512" class="cls-1" d="M80.344,152H66.469a.469.469,0,0,0,0,.938H80.344a.469.469,0,0,0,0-.937Z" transform="translate(-66 -152)"/>
    </g>
  </g>
  <g id="Group_274" data-name="Group 274" transform="translate(3.094 4.125)">
    <g id="Group_273" data-name="Group 273">
      <path id="Path_513" data-name="Path 513" class="cls-1" d="M77.835,88H66.469a.469.469,0,0,0,0,.938H77.835a.469.469,0,0,0,0-.937Z" transform="translate(-66 -88)"/>
    </g>
  </g>
  <g id="Group_276" data-name="Group 276" transform="translate(16.969 4.125)">
    <g id="Group_275" data-name="Group 275">
      <path id="Path_514" data-name="Path 514" class="cls-1" d="M362.8,88.137a.468.468,0,1,0,.137.331A.472.472,0,0,0,362.8,88.137Z" transform="translate(-362 -88)"/>
    </g>
  </g>
  <g id="Group_278" data-name="Group 278" transform="translate(3.094 10.125)">
    <g id="Group_277" data-name="Group 277">
      <path id="Path_515" data-name="Path 515" class="cls-1" d="M71.65,216H66.469a.469.469,0,0,0,0,.938H71.65a.469.469,0,0,0,0-.937Z" transform="translate(-66 -216)"/>
    </g>
  </g>
</svg>
