<svg xmlns="http://www.w3.org/2000/svg" width="24.21" height="19.444" viewBox="0 0 24.21 19.444">
  <defs>
    <style>
      .cls-1 {
        fill: #b1b1b1;
        stroke: #b1b1b1;
        stroke-width: 0.2px;
      }
    </style>
  </defs>
  <g id="businessman" transform="translate(0.105 0.053)">
    <path id="Path_548" data-name="Path 548" class="cls-1" d="M110.139,143.123a.285.285,0,0,0-.468,0l-2.625,3.8a.274.274,0,0,0-.018.288.278.278,0,0,0,.252.146h2.246a8.617,8.617,0,0,1-3.136,5.449,9.064,9.064,0,0,1-5.593,2.083,8.661,8.661,0,0,1-3.811-.932,9.338,9.338,0,0,1-3.24-2.641.285.285,0,1,0-.451.348,9.913,9.913,0,0,0,3.438,2.8,9.232,9.232,0,0,0,4.064.993,9.645,9.645,0,0,0,5.953-2.214,9.14,9.14,0,0,0,3.351-5.89h2.428a.277.277,0,0,0,.234-.437Zm-2.317,3.668,2.083-3.018,2.082,3.018Zm0,0" transform="translate(-88.814 -136.174)"/>
    <path id="Path_549" data-name="Path 549" class="cls-1" d="M2.675,12.389a.284.284,0,0,0,.468,0l2.625-3.8A.274.274,0,0,0,5.786,8.3a.279.279,0,0,0-.252-.146H3.288A8.617,8.617,0,0,1,6.424,2.7,9.064,9.064,0,0,1,12.017.619a8.661,8.661,0,0,1,3.811.932,9.338,9.338,0,0,1,3.24,2.64.285.285,0,0,0,.451-.348,9.913,9.913,0,0,0-3.438-2.8A9.229,9.229,0,0,0,12.017.047,9.644,9.644,0,0,0,6.064,2.262a9.14,9.14,0,0,0-3.351,5.89H.285a.277.277,0,0,0-.234.437ZM4.992,8.721,2.91,11.739.827,8.721Zm0,0" transform="translate(0)"/>
    <path id="Path_550" data-name="Path 550" class="cls-1" d="M222.177,51.5a1.559,1.559,0,0,0-1.559-1.559h-.012a1.559,1.559,0,0,0-1.559,1.559v.534a1.559,1.559,0,0,0,1.559,1.559h.012a1.559,1.559,0,0,0,1.559-1.559Zm-.569.534a.99.99,0,0,1-.99.99h-.012a.99.99,0,0,1-.99-.99V51.5a.99.99,0,0,1,.99-.99h.012a.99.99,0,0,1,.99.99Zm0,0" transform="translate(-208.659 -47.528)"/>
    <path id="Path_551" data-name="Path 551" class="cls-1" d="M187.576,129.42l.236.223a1.129,1.129,0,0,1,.347.76l.2,4.263a.292.292,0,0,0,.286.278h3.064a.291.291,0,0,0,.284-.278l.2-4.262a1.132,1.132,0,0,1,.342-.759l.241-.225a1.723,1.723,0,0,0,.525-1.22v-2.483a1.821,1.821,0,0,0-.42-1.237,1.646,1.646,0,0,0-1.209-.538h-.253a.29.29,0,0,0-.268.194l-.285.8-.508-.539a.284.284,0,0,0-.419.006l-.457.51-.247-.764a.289.289,0,0,0-.27-.2h-.294a1.646,1.646,0,0,0-1.209.538,1.819,1.819,0,0,0-.421,1.236V128.2A1.719,1.719,0,0,0,187.576,129.42Zm2.586-4.411.24.255.327,3.046-.552.552-.552-.552.33-3.069Zm-2.263-.148a1.041,1.041,0,0,1,.777-.35h.088l.336,1.038a.287.287,0,0,0,.227.195l-.283,2.639a.286.286,0,0,0,.082.232l.85.85a.284.284,0,0,0,.4,0l.85-.85a.285.285,0,0,0,.082-.232l-.283-2.637.015,0a.291.291,0,0,0,.21-.188l.374-1.046h.053a1.071,1.071,0,0,1,1.051,1.16c0,.009.009.022.009.031v2.5a1.147,1.147,0,0,1-.353.811l-.236.224a1.714,1.714,0,0,0-.515,1.145l-.193,3.995h-2.522l-.19-3.992a1.7,1.7,0,0,0-.517-1.146l-.24-.224a1.152,1.152,0,0,1-.356-.816V125.7c0-.009.009-.022.009-.031a1.048,1.048,0,0,1,.275-.81Zm0,0" transform="translate(-178.177 -118.019)"/>
  </g>
</svg>
