<svg xmlns="http://www.w3.org/2000/svg" width="20.124" height="17.852" viewBox="0 0 20.124 17.852">
  <defs>
    <style>
      .cls-1 {
        fill: #b1b1b1;
      }
    </style>
  </defs>
  <g id="calendar" transform="translate(0 -28)">
    <g id="Group_417" data-name="Group 417" transform="translate(0 28)">
      <path id="Path_571" data-name="Path 571" class="cls-1" d="M18.988,28.974h-.162v-.649A.325.325,0,0,0,18.5,28H17.2a.325.325,0,0,0-.325.325v.649H14.931v-.649A.325.325,0,0,0,14.606,28h-1.3a.325.325,0,0,0-.325.325v.649H11.036v-.649A.325.325,0,0,0,10.711,28h-1.3a.325.325,0,0,0-.325.325v.649H7.141v-.649A.325.325,0,0,0,6.816,28h-1.3a.325.325,0,0,0-.325.325v.649H3.246v-.649A.325.325,0,0,0,2.921,28h-1.3a.325.325,0,0,0-.325.325v.649H1.136A1.137,1.137,0,0,0,0,30.11V44.716a1.137,1.137,0,0,0,1.136,1.136H18.988a1.137,1.137,0,0,0,1.136-1.136V30.11A1.137,1.137,0,0,0,18.988,28.974Zm-1.461-.325h.649v1.3h-.649Zm-3.895,0h.649v1.3h-.649Zm-3.895,0h.649v1.3H9.737Zm-3.895,0h.649v1.3H5.842Zm-3.895,0H2.6v1.3H1.947ZM19.475,44.716a.487.487,0,0,1-.487.487H1.136a.487.487,0,0,1-.487-.487V31.57H19.475Zm0-13.795H.649V30.11a.487.487,0,0,1,.487-.487H1.3v.649a.325.325,0,0,0,.325.325h1.3a.325.325,0,0,0,.325-.325v-.649H5.193v.649a.325.325,0,0,0,.325.325h1.3a.325.325,0,0,0,.325-.325v-.649H9.088v.649a.325.325,0,0,0,.325.325h1.3a.325.325,0,0,0,.325-.325v-.649h1.947v.649a.325.325,0,0,0,.325.325h1.3a.325.325,0,0,0,.325-.325v-.649h1.947v.649a.325.325,0,0,0,.325.325h1.3a.325.325,0,0,0,.325-.325v-.649h.162a.487.487,0,0,1,.487.487Z" transform="translate(0 -28)"/>
      <path id="Path_572" data-name="Path 572" class="cls-1" d="M148.22,180a4.22,4.22,0,1,0,4.22,4.22A4.219,4.219,0,0,0,148.22,180Zm0,7.79a3.57,3.57,0,1,1,3.57-3.57A3.57,3.57,0,0,1,148.22,187.79Z" transform="translate(-138.158 -173.833)"/>
      <path id="Path_573" data-name="Path 573" class="cls-1" d="M240.325,141.3a.325.325,0,0,0,.325-.325v-.649a.325.325,0,0,0-.649,0v.649A.325.325,0,0,0,240.325,141.3Z" transform="translate(-230.263 -135.456)"/>
      <path id="Path_574" data-name="Path 574" class="cls-1" d="M240.325,396a.325.325,0,0,0-.325.325v.649a.325.325,0,0,0,.649,0v-.649A.325.325,0,0,0,240.325,396Z" transform="translate(-230.263 -381.069)"/>
      <path id="Path_575" data-name="Path 575" class="cls-1" d="M360.974,276h-.649a.325.325,0,0,0,0,.649h.649a.325.325,0,0,0,0-.649Z" transform="translate(-345.394 -265.938)"/>
      <path id="Path_576" data-name="Path 576" class="cls-1" d="M104.974,276h-.649a.325.325,0,0,0,0,.649h.649a.325.325,0,0,0,0-.649Z" transform="translate(-99.78 -265.938)"/>
      <path id="Path_577" data-name="Path 577" class="cls-1" d="M325.548,179.986l-.459.459a.325.325,0,0,0,.459.459l.459-.459a.325.325,0,0,0-.459-.459Z" transform="translate(-311.814 -173.73)"/>
      <path id="Path_578" data-name="Path 578" class="cls-1" d="M144.327,361.09l-.459.459a.325.325,0,1,0,.454.464l.005-.005.459-.459a.325.325,0,0,0-.459-.459Z" transform="translate(-137.937 -347.49)"/>
      <path id="Path_579" data-name="Path 579" class="cls-1" d="M325.548,361.089a.325.325,0,0,0-.459.459l.459.459a.325.325,0,0,0,.459-.459Z" transform="translate(-311.814 -347.49)"/>
      <path id="Path_580" data-name="Path 580" class="cls-1" d="M144.449,180.907a.325.325,0,0,0,.459-.459l-.459-.459a.325.325,0,0,0-.459.459Z" transform="translate(-138.059 -173.734)"/>
    </g>
  </g>
</svg>
