<svg xmlns="http://www.w3.org/2000/svg" width="18.561" height="18.56" viewBox="0 0 18.561 18.56">
  <defs>
    <style>
      .cls-1 {
        fill: #b1b1b1;
      }
    </style>
  </defs>
  <g id="continuous" transform="translate(-2 -2)">
    <path id="Path_581" data-name="Path 581" class="cls-1" d="M7.13,7.621l-.4-.4-.437.437.619.619a.309.309,0,0,0,.437,0L8.9,6.73l-.437-.437Z" transform="translate(-2.965 -2.965)"/>
    <path id="Path_582" data-name="Path 582" class="cls-1" d="M27.13,7.621l-.4-.4-.437.437.619.619a.309.309,0,0,0,.437,0L28.9,6.73l-.437-.437Z" transform="translate(-16.778 -2.965)"/>
    <path id="Path_583" data-name="Path 583" class="cls-1" d="M47.13,7.621l-.4-.4-.437.437.619.619a.309.309,0,0,0,.437,0L48.9,6.73l-.437-.437Z" transform="translate(-30.591 -2.965)"/>
    <path id="Path_584" data-name="Path 584" class="cls-1" d="M11.13,52.368a.308.308,0,0,0,.219-.091L12.9,50.73l-.437-.437L11.13,51.621l-.4-.4-.437.437.619.619A.308.308,0,0,0,11.13,52.368Z" transform="translate(-5.728 -33.354)"/>
    <path id="Path_585" data-name="Path 585" class="cls-1" d="M31.13,52.368a.308.308,0,0,0,.219-.091L32.9,50.73l-.437-.437L31.13,51.621l-.4-.4-.437.437.619.619A.308.308,0,0,0,31.13,52.368Z" transform="translate(-19.541 -33.354)"/>
    <path id="Path_586" data-name="Path 586" class="cls-1" d="M51.13,52.368a.308.308,0,0,0,.219-.091L52.9,50.73l-.437-.437L51.13,51.621l-.4-.4-.437.437.619.619A.308.308,0,0,0,51.13,52.368Z" transform="translate(-33.354 -33.354)"/>
    <path id="Path_587" data-name="Path 587" class="cls-1" d="M20.56,10.043V5.712A1.548,1.548,0,0,0,19.306,4.2a2.473,2.473,0,0,0-4.911-.03h-1.28a2.472,2.472,0,0,0-4.906,0H6.928a2.473,2.473,0,1,0,0,.619h1.28a2.473,2.473,0,0,0,4.907,0H14.4a2.472,2.472,0,0,0,4.9.048.927.927,0,0,1,.647.88v4.331a.929.929,0,0,1-.928.928H13.883l.709-.709-.437-.437-1.147,1.147h-1.6l.709-.709-.437-.437-1.147,1.147h-1.6l.709-.709-.437-.437L8.059,10.971H3.547A1.548,1.548,0,0,0,2,12.518v4.331a1.548,1.548,0,0,0,1.254,1.517,2.473,2.473,0,0,0,4.911.03h1.28a2.473,2.473,0,0,0,4.907,0h1.28a2.475,2.475,0,1,0,0-.619h-1.28a2.473,2.473,0,0,0-4.907,0H8.165a2.472,2.472,0,0,0-4.9-.048.926.926,0,0,1-.647-.88V12.518a.929.929,0,0,1,.928-.928H8.059l1.147,1.147.437-.437-.709-.709h1.6l1.147,1.147.437-.437-.709-.709h1.6l1.147,1.147.437-.437-.709-.709h5.131a1.548,1.548,0,0,0,1.547-1.547ZM4.475,6.331A1.856,1.856,0,1,1,6.331,4.475,1.858,1.858,0,0,1,4.475,6.331Zm6.187,0a1.856,1.856,0,1,1,1.856-1.856A1.858,1.858,0,0,1,10.662,6.331Zm6.187,0A1.856,1.856,0,1,1,18.7,4.475,1.858,1.858,0,0,1,16.848,6.331Zm1.237,9.9a1.856,1.856,0,1,1-1.856,1.856A1.858,1.858,0,0,1,18.086,16.23Zm-6.187,0a1.856,1.856,0,1,1-1.856,1.856A1.858,1.858,0,0,1,11.9,16.23Zm-6.187,0a1.856,1.856,0,1,1-1.856,1.856A1.858,1.858,0,0,1,5.712,16.23Z"/>
  </g>
</svg>
