<svg xmlns="http://www.w3.org/2000/svg" width="24" height="15.239" viewBox="0 0 24 15.239">
  <defs>
    <style>
      .cls-1 {
        fill: #b1b1b1;
      }
    </style>
  </defs>
  <g id="group_1_" data-name="group (1)" transform="translate(0 -92.25)">
    <g id="Group_4" data-name="Group 4" transform="translate(0 92.25)">
      <path id="Path_4" data-name="Path 4" class="cls-1" d="M20.757,98.955a2.74,2.74,0,1,0-3.144,0,4.748,4.748,0,0,0-1.619.95,6.143,6.143,0,0,0-2.222-1.211,3.471,3.471,0,1,0-3.59,0,6.2,6.2,0,0,0-2.2,1.2,4.786,4.786,0,0,0-1.6-.931,2.74,2.74,0,1,0-3.144,0A4.81,4.81,0,0,0,0,103.5v.313a.02.02,0,0,0,.019.019H5.827a6.387,6.387,0,0,0-.052.8v.323A2.525,2.525,0,0,0,8.3,107.489h7.361a2.525,2.525,0,0,0,2.526-2.526v-.323a6.387,6.387,0,0,0-.052-.8h5.846a.02.02,0,0,0,.019-.019V103.5A4.828,4.828,0,0,0,20.757,98.955ZM17.2,96.709a1.98,1.98,0,1,1,2.018,1.98h-.076A1.977,1.977,0,0,1,17.2,96.709Zm-7.949-.988a2.712,2.712,0,1,1,2.868,2.707H11.81A2.715,2.715,0,0,1,9.255,95.721Zm-6.439.988a1.98,1.98,0,1,1,2.018,1.98H4.758A1.981,1.981,0,0,1,2.816,96.709Zm3.144,6.363H.769a4.057,4.057,0,0,1,4-3.623h.057a4.015,4.015,0,0,1,2.588.964A6.235,6.235,0,0,0,5.96,103.072Zm11.459,1.89a1.769,1.769,0,0,1-1.767,1.767H8.291a1.769,1.769,0,0,1-1.767-1.767v-.323a5.455,5.455,0,0,1,5.285-5.447c.052,0,.109,0,.161,0s.109,0,.161,0a5.455,5.455,0,0,1,5.285,5.447Zm.565-1.89a6.219,6.219,0,0,0-1.439-2.64,4.035,4.035,0,0,1,2.612-.983h.057a4.057,4.057,0,0,1,4,3.623Z" transform="translate(0 -92.25)"/>
    </g>
  </g>
</svg>
