<svg xmlns="http://www.w3.org/2000/svg" width="20.5" height="24" viewBox="0 0 20.5 24">
  <defs>
    <style>
      .cls-1 {
        fill: #007cc4;
      }

      .cls-2 {
        fill: red;
        stroke: #fff;
        stroke-miterlimit: 10;
        stroke-width: 0.5px;
      }

      .cls-3 {
        stroke: none;
      }

      .cls-4 {
        fill: none;
      }
    </style>
  </defs>
  <g id="Group_51" data-name="Group 51" transform="translate(2522 -736)">
    <g id="bell" transform="translate(-2524 736)">
      <g id="Group_48" data-name="Group 48">
        <path id="Path_34" data-name="Path 34" class="cls-1" d="M13.5,4.18a.5.5,0,0,1-.5-.5V2a1,1,0,0,0-2,0V3.68a.5.5,0,0,1-1,0V2a2,2,0,0,1,4,0V3.68A.5.5,0,0,1,13.5,4.18Z"/>
      </g>
      <g id="Group_49" data-name="Group 49">
        <path id="Path_35" data-name="Path 35" class="cls-1" d="M12,24a3.5,3.5,0,0,1-3.5-3.5.5.5,0,0,1,1,0,2.5,2.5,0,0,0,5,0,.5.5,0,0,1,1,0A3.5,3.5,0,0,1,12,24Z"/>
      </g>
      <g id="Group_50" data-name="Group 50">
        <path id="Path_36" data-name="Path 36" class="cls-1" d="M20.5,21H3.5a1.5,1.5,0,0,1-.975-2.64A6.952,6.952,0,0,0,5,13.038V10a7,7,0,0,1,14,0v3.038a6.945,6.945,0,0,0,2.467,5.315A1.5,1.5,0,0,1,20.5,21ZM12,4a6.006,6.006,0,0,0-6,6v3.038a7.944,7.944,0,0,1-2.821,6.079A.5.5,0,0,0,3.5,20h17a.5.5,0,0,0,.325-.88A7.951,7.951,0,0,1,18,13.038V10a6.006,6.006,0,0,0-6-6Z"/>
      </g>
    </g>
    <g id="Oval_4" data-name="Oval 4" class="cls-2" transform="translate(-2509 740)">
      <circle class="cls-3" cx="3.5" cy="3.5" r="3.5"/>
      <circle class="cls-4" cx="3.5" cy="3.5" r="3.75"/>
    </g>
  </g>
</svg>
