<svg id="hierarchical-structure" xmlns="http://www.w3.org/2000/svg" width="20.675" height="20.675" viewBox="0 0 20.675 20.675">
  <defs>
    <style>
      .cls-1 {
        fill: #b1b1b1;
      }
    </style>
  </defs>
  <g id="Group_415" data-name="Group 415">
    <path id="Path_547" data-name="Path 547" class="cls-1" d="M13.484,4.495h6.292a.9.9,0,0,0,.9-.9V.9a.9.9,0,0,0-.9-.9H13.484a.9.9,0,0,0-.9.9v.9H10.337a.45.45,0,0,0-.449.449V9.888H8.09v-.9a.9.9,0,0,0-.9-.9H.9a.9.9,0,0,0-.9.9v2.7a.9.9,0,0,0,.9.9H7.191a.9.9,0,0,0,.9-.9v-.9h1.8v7.641a.45.45,0,0,0,.449.449h2.247v.9a.9.9,0,0,0,.9.9h6.292a.9.9,0,0,0,.9-.9v-2.7a.9.9,0,0,0-.9-.9H13.484a.9.9,0,0,0-.9.9v.9h-1.8V10.787h1.8v.9a.9.9,0,0,0,.9.9h6.292a.9.9,0,0,0,.9-.9v-2.7a.9.9,0,0,0-.9-.9H13.484a.9.9,0,0,0-.9.9v.9h-1.8V2.7h1.8v.9A.9.9,0,0,0,13.484,4.495Zm0-3.6h6.292V3.6H13.484ZM7.191,11.686H.9v-2.7H7.191Zm6.292,5.393h6.292v2.7H13.484Zm0-8.09h6.292v2.7H13.484Z"/>
  </g>
</svg>
