<svg xmlns="http://www.w3.org/2000/svg" width="17.415" height="16.1" viewBox="0 0 17.415 16.1">
  <defs>
    <style>
      .cls-1 {
        fill: #007cc4;
        stroke: #007bc3;
        stroke-width: 0.1px;
      }
    </style>
  </defs>
  <g id="house" transform="translate(0.123 -18.372)">
    <g id="Group_35" data-name="Group 35" transform="translate(0 18.422)">
      <path id="Path_32" data-name="Path 32" class="cls-1" d="M16.732,23.724,15.007,22.5a.306.306,0,0,0,.011-.077V19.653a.308.308,0,0,0-.308-.308H12.864a.308.308,0,0,0-.308.308v1.1L9.35,18.479a.308.308,0,0,0-.178-.057H7.907a.308.308,0,0,0-.181.059L.506,23.726a1.231,1.231,0,0,0,.531,2.21,1.252,1.252,0,0,0,.2.016,1.22,1.22,0,0,0,.246-.026v7.266a1.233,1.233,0,0,0,1.233,1.23H14.4a1.233,1.233,0,0,0,1.233-1.23v-7.3a1.231,1.231,0,0,0,1.1-2.168Zm-3.56-2.533V19.96H14.4v2.109l-1.231-.875S13.172,21.192,13.172,21.191ZM10.4,33.807H6.71V29.191H10.4Zm4.615-.614a.617.617,0,0,1-.618.614H11.018V28.884a.308.308,0,0,0-.308-.308H6.4a.308.308,0,0,0-.308.308v4.923H2.712a.617.617,0,0,1-.618-.614V25.615l6.463-4.661,6.46,4.573Zm1.49-8.109a.616.616,0,0,1-.862.135L8.734,20.325a.307.307,0,0,0-.358,0L1.591,25.22a.615.615,0,0,1-.859-.137.616.616,0,0,1,.135-.859l7.139-5.187H9.073l7.3,5.187A.616.616,0,0,1,16.508,25.083Z" transform="translate(0 -18.422)"/>
    </g>
  </g>
</svg>
