<svg xmlns="http://www.w3.org/2000/svg" width="19.146" height="19.146" viewBox="0 0 19.146 19.146">
  <defs>
    <style>
      .cls-1 {
        fill: #007cc4;
      }
    </style>
  </defs>
  <g id="paper-push-pin" transform="translate(-40.367 -51.681) rotate(45)">
    <path id="Path_2110" data-name="Path 2110" class="cls-1" d="M83.41,8.332A2.167,2.167,0,0,0,81.7,7.385V2.462a1.182,1.182,0,0,0,.865-.365,1.183,1.183,0,0,0,.366-.865,1.182,1.182,0,0,0-.366-.865A1.182,1.182,0,0,0,81.7,0H75.55a1.183,1.183,0,0,0-.865.365,1.183,1.183,0,0,0-.365.865,1.183,1.183,0,0,0,.365.865,1.183,1.183,0,0,0,.865.365V7.385a2.168,2.168,0,0,0-1.707.947,3.33,3.33,0,0,0-.755,2.13.624.624,0,0,0,.616.615h3.885l.731,4.664a.284.284,0,0,0,.308.26h.01a.269.269,0,0,0,.2-.082.355.355,0,0,0,.1-.2l.49-4.644h4.125a.624.624,0,0,0,.616-.615A3.329,3.329,0,0,0,83.41,8.332ZM77.7,7.077a.308.308,0,1,1-.615,0V2.769a.308.308,0,1,1,.615,0Z"/>
  </g>
</svg>
