<svg xmlns="http://www.w3.org/2000/svg" width="20.971" height="20.766" viewBox="0 0 20.971 20.766">
  <defs>
    <style>
      .cls-1 {
        fill: #b1b1b1;
      }
    </style>
  </defs>
  <g id="paper" transform="translate(0 -2.493)">
    <path id="Path_565" data-name="Path 565" class="cls-1" d="M20.8,5.038,18.322,2.677a.5.5,0,0,0-.373-.184H8.032a.526.526,0,0,0-.525.525V4.631l-3.5.6a.518.518,0,0,0-.42.6l.177,1.034c-1.136.382-2.3.776-3.428,1.181A.52.52,0,0,0,.03,8.7l2.24,6.226a.307.307,0,0,0,.578-.208L.641,8.588C1.7,8.208,2.8,7.836,3.874,7.475l1.056,6.154,1.215,7.087a.52.52,0,0,0,.6.421l3.29-.565,2.571-.441-3.866,1.39-3.049,1.1L3.319,16.032a.307.307,0,1,0-.578.208l2.4,6.679a.519.519,0,0,0,.486.341.508.508,0,0,0,.175-.031L8.943,22.1l7.131-2.563,1.362-.234h3.009a.526.526,0,0,0,.525-.526V5.384a.442.442,0,0,0-.173-.346Zm-.814.073H18.409c-.074,0-.246,0-.29-.042a.173.173,0,0,1-.022-.106l0-1.655Zm.372,13.578H8.121V12.7a.307.307,0,0,0-.614,0v6.075a.527.527,0,0,0,.525.526H13.8l-3.872.664-3.194.548-1.2-6.99L4.213,5.819l3.293-.565v6.022a.307.307,0,1,0,.614,0V3.107h9.358l0,1.856a.731.731,0,0,0,.2.541.939.939,0,0,0,.682.22h1.987Z" transform="translate(0)"/>
    <path id="Path_566" data-name="Path 566" class="cls-1" d="M234.43,111.756a.307.307,0,0,0,.307.307h8.783a.307.307,0,0,0,0-.614h-8.783A.307.307,0,0,0,234.43,111.756Z" transform="translate(-224.828 -104.493)"/>
    <path id="Path_567" data-name="Path 567" class="cls-1" d="M243.52,164.731h-8.783a.307.307,0,0,0,0,.614h8.783a.307.307,0,0,0,0-.614Z" transform="translate(-224.828 -155.593)"/>
    <path id="Path_568" data-name="Path 568" class="cls-1" d="M243.52,218.013h-8.783a.307.307,0,0,0,0,.614h8.783a.307.307,0,0,0,0-.614Z" transform="translate(-224.828 -206.693)"/>
    <path id="Path_569" data-name="Path 569" class="cls-1" d="M243.52,271.3h-8.783a.307.307,0,0,0,0,.614h8.783a.307.307,0,0,0,0-.614Z" transform="translate(-224.828 -257.792)"/>
    <path id="Path_570" data-name="Path 570" class="cls-1" d="M243.52,324.578h-8.783a.307.307,0,1,0,0,.614h8.783a.307.307,0,1,0,0-.614Z" transform="translate(-224.828 -308.893)"/>
  </g>
</svg>
