<svg xmlns="http://www.w3.org/2000/svg" width="17.1" height="17.11" viewBox="0 0 17.1 17.11">
  <defs>
    <style>
      .cls-1 {
        fill: #b1b1b1;
        stroke: #b1b1b1;
        stroke-width: 0.1px;
      }
    </style>
  </defs>
  <g id="salary" transform="translate(-0.282 0.057)">
    <path id="Path_22" data-name="Path 22" class="cls-1" d="M17.219,6.292l-1.587-1.2V1.7a.283.283,0,0,0-.283-.283H10.795L9,.059a.284.284,0,0,0-.342,0L6.87,1.419H2.315a.283.283,0,0,0-.283.283V5.089L.445,6.292a.283.283,0,0,0-.113.227v9.067A1.418,1.418,0,0,0,1.749,17H15.915a1.418,1.418,0,0,0,1.417-1.417V6.519a.283.283,0,0,0-.113-.227Zm-.64.227-.947.719V5.8ZM8.832.641l1.025.778H7.807Zm6.233,1.344V7.668L14.5,8.1V4.535a.283.283,0,0,0-.283-.283A1.418,1.418,0,0,1,12.8,2.835a.283.283,0,0,0-.283-.283H5.149a.283.283,0,0,0-.283.283A1.418,1.418,0,0,1,3.449,4.252a.283.283,0,0,0-.283.283V8.1L2.6,7.668V1.985ZM3.732,4.8A1.983,1.983,0,0,0,5.409,3.119h6.845A1.983,1.983,0,0,0,13.932,4.8V8.528L9.346,12.007a.852.852,0,0,1-1.027,0L3.732,8.528Zm-1.7,2.442-.948-.719L2.032,5.8Zm13.883,9.2H1.749a.85.85,0,0,1-.85-.85v-8.5l7.077,5.369a1.422,1.422,0,0,0,1.712,0l7.077-5.369v8.5a.85.85,0,0,1-.85.85Zm0,0" transform="translate(0 0)"/>
    <path id="Path_23" data-name="Path 23" class="cls-1" d="M109.426,88.662a3.4,3.4,0,1,0-3.4,3.4A3.4,3.4,0,0,0,109.426,88.662Zm-6.233,0a2.833,2.833,0,1,1,2.833,2.833A2.833,2.833,0,0,1,103.192,88.662Zm0,0" transform="translate(-97.193 -81.01)"/>
    <path id="Path_24" data-name="Path 24" class="cls-1" d="M149.507,107.129v-.323a1.131,1.131,0,0,0-.283-2.226.567.567,0,1,1,.567-.567.283.283,0,1,0,.567,0,1.133,1.133,0,0,0-.85-1.093V102.6a.283.283,0,0,0-.567,0v.324a1.131,1.131,0,0,0,.283,2.226.567.567,0,1,1-.567.567.283.283,0,0,0-.567,0,1.134,1.134,0,0,0,.85,1.093v.323a.283.283,0,1,0,.567,0Zm0,0" transform="translate(-140.391 -97.21)"/>
  </g>
</svg>
