<svg xmlns="http://www.w3.org/2000/svg" width="19.455" height="19.456" viewBox="0 0 19.455 19.456">
  <defs>
    <style>
      .cls-1 {
        fill: #b1b1b1;
        stroke: #b1b1b1;
        stroke-width: 0.1px;
      }
    </style>
  </defs>
  <g id="settings" transform="translate(0.05 0.05)">
    <g id="Group_28" data-name="Group 28" transform="translate(0 6.452)">
      <g id="Group_27" data-name="Group 27">
        <path id="Path_28" data-name="Path 28" class="cls-1" d="M11.936,164.839h-.355a.317.317,0,0,1-.3-.208c-.039-.1-.082-.2-.127-.3a.318.318,0,0,1,.065-.36l.253-.253a.97.97,0,0,0,0-1.367l-.912-.912a.97.97,0,0,0-1.368,0l-.253.253a.319.319,0,0,1-.36.065c-.1-.046-.2-.088-.3-.129a.317.317,0,0,1-.209-.3v-.355A.968.968,0,0,0,7.1,160H5.807a.968.968,0,0,0-.968.968v.355a.317.317,0,0,1-.208.3c-.1.039-.2.082-.3.127a.319.319,0,0,1-.36-.065l-.253-.253a.97.97,0,0,0-1.367,0l-.912.915a.97.97,0,0,0,0,1.368l.253.253a.318.318,0,0,1,.065.36c-.045.1-.088.2-.127.3a.317.317,0,0,1-.3.208H.968a.968.968,0,0,0-.968.968v1.29a.968.968,0,0,0,.968.968h.355a.317.317,0,0,1,.3.208c.039.1.082.2.127.3a.318.318,0,0,1-.065.36l-.253.253a.97.97,0,0,0,0,1.367l.912.912a.97.97,0,0,0,1.368,0l.253-.253a.319.319,0,0,1,.36-.065c.1.045.2.088.3.129a.317.317,0,0,1,.211.3v.355a.968.968,0,0,0,.968.968H7.1a.968.968,0,0,0,.968-.968v-.355a.317.317,0,0,1,.208-.3c.1-.039.2-.082.3-.127a.319.319,0,0,1,.36.065l.253.253a.97.97,0,0,0,1.367,0l.912-.912a.97.97,0,0,0,0-1.368l-.253-.253a.318.318,0,0,1-.065-.36c.045-.1.088-.2.129-.3a.317.317,0,0,1,.3-.209h.355a.968.968,0,0,0,.968-.968v-1.29A.968.968,0,0,0,11.936,164.839Zm.323,2.258a.323.323,0,0,1-.323.323h-.355a.971.971,0,0,0-.9.624q-.051.135-.111.267a.971.971,0,0,0,.194,1.083l.252.253a.323.323,0,0,1,0,.456h0l-.912.912a.323.323,0,0,1-.456,0l-.253-.253a.97.97,0,0,0-1.083-.194c-.087.04-.176.077-.266.111a.971.971,0,0,0-.624.9v.355a.323.323,0,0,1-.323.323H5.807a.323.323,0,0,1-.323-.323v-.355a.971.971,0,0,0-.624-.9q-.135-.051-.267-.111a.971.971,0,0,0-1.083.194l-.253.252a.323.323,0,0,1-.456,0h0L1.89,170.1a.323.323,0,0,1,0-.456l.253-.253a.971.971,0,0,0,.194-1.083c-.04-.087-.077-.176-.111-.266a.971.971,0,0,0-.9-.625H.968a.323.323,0,0,1-.323-.323v-1.29a.323.323,0,0,1,.323-.323h.355a.971.971,0,0,0,.9-.624q.051-.135.111-.267a.971.971,0,0,0-.194-1.083l-.254-.253a.323.323,0,0,1,0-.456h0l.912-.912a.323.323,0,0,1,.456,0l.253.253a.97.97,0,0,0,1.083.194c.087-.04.176-.077.266-.111a.971.971,0,0,0,.625-.9v-.355a.323.323,0,0,1,.323-.323H7.1a.323.323,0,0,1,.323.323v.355a.971.971,0,0,0,.624.9q.135.051.267.111a.97.97,0,0,0,1.083-.194l.253-.252a.325.325,0,0,1,.456,0l.912.912a.323.323,0,0,1,0,.456l-.253.253a.971.971,0,0,0-.194,1.083c.04.087.077.176.111.266a.971.971,0,0,0,.9.624h.355a.323.323,0,0,1,.323.323v1.29Z" transform="translate(0 -160)"/>
      </g>
    </g>
    <g id="Group_30" data-name="Group 30" transform="translate(3.547 10)">
      <g id="Group_29" data-name="Group 29">
        <path id="Path_29" data-name="Path 29" class="cls-1" d="M93.76,250.774c0-.077-.009-.155-.018-.231s-.023-.165-.04-.245c-.011-.053-.026-.1-.04-.157s-.038-.132-.061-.2c-.016-.045-.032-.089-.049-.134a2.877,2.877,0,0,0-.142-.3c0-.007-.007-.015-.011-.023a2.862,2.862,0,0,0-.29-.423l-.03-.034c-.045-.053-.09-.1-.138-.152-.025-.026-.052-.051-.078-.076l-.1-.088q-.059-.051-.12-.1l-.053-.039a2.883,2.883,0,0,0-1.73-.576c-.032,0-.065,0-.1.006-.069,0-.138.006-.207.013l-.11.013a2.967,2.967,0,0,0-.313.058,2.9,2.9,0,0,0,0,5.626l.016,0a3.075,3.075,0,0,0,.338.065c.075.009.15.011.226.015.05,0,.1.01.149.01.092,0,.187-.006.285-.016a.32.32,0,0,0,.032,0c.078-.009.158-.02.239-.036.032-.006.062-.014.093-.021.057-.013.113-.027.171-.044s.089-.029.133-.045l.136-.05c.046-.017.084-.037.126-.057s.108-.049.161-.078h0a3.817,3.817,0,0,0,.827-.6,1.014,1.014,0,0,0,.173-.212,3.443,3.443,0,0,0,.486-1.326c.009-.062.017-.124.022-.188s.008-.116.009-.175c0-.018,0-.036,0-.054C93.767,250.86,93.762,250.818,93.76,250.774Zm-.643.211c0,.027,0,.054,0,.08-.006.078-.016.156-.029.235a2.263,2.263,0,0,1-1.134,1.581c-.04.021-.079.041-.119.059l-.027.013a2.329,2.329,0,0,1-.588.178l-.043.007c-.04.006-.08.011-.119.014s-.1.007-.157.008H90.83a2.267,2.267,0,0,1-.228-.014l-.039,0a2.385,2.385,0,0,1-.264-.05,2.258,2.258,0,0,1,0-4.375h0a2.337,2.337,0,0,1,.567-.071,2.223,2.223,0,0,1,.276.019l.073.011c.07.011.139.025.207.042l.066.017a2.28,2.28,0,0,1,.492.207l.074.045c.051.032.1.065.149.1.026.019.053.038.078.058a2.311,2.311,0,0,1,.182.161c.023.023.044.049.066.073.037.04.073.082.108.125s.047.061.069.092c.032.046.065.095.094.144l.049.08a2.212,2.212,0,0,1,.111.236c.013.032.024.065.035.1.021.059.039.119.055.18.008.032.017.061.024.092a2.278,2.278,0,0,1,.041.264c0,.024,0,.047,0,.071C93.119,250.836,93.12,250.911,93.117,250.986Z" transform="translate(-87.959 -248)"/>
      </g>
    </g>
    <g id="Group_32" data-name="Group 32" transform="translate(3.519)">
      <g id="Group_31" data-name="Group 31">
        <path id="Path_30" data-name="Path 30" class="cls-1" d="M102.13,6.774h-1.015a.315.315,0,0,1-.3-.212,6.72,6.72,0,0,0-.362-.875.316.316,0,0,1,.062-.364l.719-.72a.968.968,0,0,0,0-1.368L99.862,1.866a.968.968,0,0,0-1.368,0l-.719.719a.316.316,0,0,1-.364.062,6.7,6.7,0,0,0-.875-.364.315.315,0,0,1-.213-.3V.968A.968.968,0,0,0,95.356,0H93.42a.968.968,0,0,0-.968.968V1.982a.315.315,0,0,1-.212.3,6.723,6.723,0,0,0-.875.364A.315.315,0,0,1,91,2.585l-.72-.719a.97.97,0,0,0-1.368,0L87.545,3.235a.968.968,0,0,0,0,1.368L88.6,5.663a.323.323,0,0,0,.457-.455L88,4.148a.323.323,0,0,1,0-.456L89.37,2.323a.323.323,0,0,1,.456,0l.721.719a.959.959,0,0,0,1.108.182,6.1,6.1,0,0,1,.791-.329.96.96,0,0,0,.652-.913V.968A.323.323,0,0,1,93.42.645h1.936a.323.323,0,0,1,.323.323V1.982a.959.959,0,0,0,.652.913,6.084,6.084,0,0,1,.791.329.961.961,0,0,0,1.108-.182l.721-.719a.323.323,0,0,1,.456,0l1.369,1.369a.323.323,0,0,1,0,.456l-.719.721a.96.96,0,0,0-.182,1.108,6.1,6.1,0,0,1,.329.791.959.959,0,0,0,.913.652h1.015a.323.323,0,0,1,.323.323V9.678a.323.323,0,0,1-.323.323h-1.015a.959.959,0,0,0-.913.652,6.077,6.077,0,0,1-.329.791.96.96,0,0,0,.182,1.108l.719.721a.323.323,0,0,1,0,.456L99.406,15.1a.323.323,0,0,1-.456,0l-1.06-1.058a.323.323,0,0,0-.463.449l.008.008,1.06,1.058a.968.968,0,0,0,1.368,0l1.369-1.369a.968.968,0,0,0,0-1.368l-.718-.72a.316.316,0,0,1-.062-.364,6.7,6.7,0,0,0,.364-.875.315.315,0,0,1,.3-.213h1.015a.968.968,0,0,0,.968-.968V7.742A.968.968,0,0,0,102.13,6.774Z" transform="translate(-87.261 0)"/>
      </g>
    </g>
    <g id="Group_34" data-name="Group 34" transform="translate(7.59 4.518)">
      <g id="Group_33" data-name="Group 33">
        <path id="Path_31" data-name="Path 31" class="cls-1" d="M194.24,113.276a4.2,4.2,0,0,0-5.931,0,.323.323,0,0,0,.456.456,3.549,3.549,0,0,1,5.052,4.985l-.034.034a.323.323,0,1,0,.448.464l.008-.008A4.2,4.2,0,0,0,194.24,113.276Z" transform="translate(-188.219 -112.049)"/>
      </g>
    </g>
  </g>
</svg>
