<svg xmlns="http://www.w3.org/2000/svg" width="16" height="10.198" viewBox="0 0 16 10.198">
  <g id="view_1_" data-name="view (1)" transform="translate(0 -92.835)">
    <g id="Group_35953" data-name="Group 35953" transform="translate(0 92.835)">
      <g id="Group_35952" data-name="Group 35952" transform="translate(0 0)">
        <path id="Path_2173" data-name="Path 2173" d="M15.9,97.623c-.143-.2-3.549-4.788-7.9-4.788S.244,97.427.1,97.622a.528.528,0,0,0,0,.623c.143.2,3.549,4.788,7.9,4.788s7.755-4.592,7.9-4.787A.528.528,0,0,0,15.9,97.623ZM8,101.978c-3.2,0-5.979-3.048-6.8-4.044.82-1,3.59-4.044,6.8-4.044s5.979,3.047,6.8,4.044C13.98,98.931,11.211,101.978,8,101.978Z" transform="translate(0 -92.835)" fill="#007cc4"/>
      </g>
    </g>
    <g id="Group_35955" data-name="Group 35955" transform="translate(4.835 94.769)">
      <g id="Group_35954" data-name="Group 35954" transform="translate(0 0)">
        <path id="Path_2174" data-name="Path 2174" d="M157.887,154.725a3.165,3.165,0,1,0,3.165,3.165A3.168,3.168,0,0,0,157.887,154.725Zm0,5.275a2.11,2.11,0,1,1,2.11-2.11A2.112,2.112,0,0,1,157.887,160Z" transform="translate(-154.722 -154.725)" fill="#007cc4"/>
      </g>
    </g>
  </g>
</svg>
