<svg xmlns="http://www.w3.org/2000/svg" width="15.323" height="24" viewBox="0 0 15.323 24">
  <defs>
    <style>
      .cls-1 {
        fill: #b1b1b1;
      }
    </style>
  </defs>
  <g id="working-time" transform="translate(-92.555)">
    <g id="Group_416" data-name="Group 416" transform="translate(92.555 0)">
      <path id="Path_552" data-name="Path 552" class="cls-1" d="M128.548,438.913h-.555a.352.352,0,0,0,0,.7h.2v2.245a.352.352,0,0,0,.7,0v-2.6A.352.352,0,0,0,128.548,438.913Z" transform="translate(-125.995 -418.339)"/>
      <path id="Path_553" data-name="Path 553" class="cls-1" d="M175.033,438.913H173.6a.352.352,0,0,0,0,.7h.889l-.925,2.1a.352.352,0,1,0,.645.284l1.142-2.6a.352.352,0,0,0-.323-.494Z" transform="translate(-169.469 -418.339)"/>
      <circle id="Ellipse_98" data-name="Ellipse 98" class="cls-1" cx="0.356" cy="0.356" r="0.356" transform="translate(6.772 20.811) rotate(-4.069)"/>
      <path id="Path_554" data-name="Path 554" class="cls-1" d="M237.72,489.891a.356.356,0,1,0,.356.356A.356.356,0,0,0,237.72,489.891Z" transform="translate(-230.576 -466.927)"/>
      <path id="Path_555" data-name="Path 555" class="cls-1" d="M270.934,436.28a1.144,1.144,0,0,0-1.143,1.143v1.264a1.143,1.143,0,1,0,2.285,0v-1.264A1.144,1.144,0,0,0,270.934,436.28Zm.438,2.407a.438.438,0,1,1-.876,0v-1.264a.438.438,0,1,1,.876,0Z" transform="translate(-261.483 -415.829)"/>
      <path id="Path_556" data-name="Path 556" class="cls-1" d="M336.748,436.28a1.144,1.144,0,0,0-1.143,1.143v1.264a1.143,1.143,0,1,0,2.285,0v-1.264A1.144,1.144,0,0,0,336.748,436.28Zm.438,2.407a.438.438,0,1,1-.876,0v-1.264a.438.438,0,1,1,.876,0Z" transform="translate(-324.212 -415.829)"/>
      <circle id="Ellipse_99" data-name="Ellipse 99" class="cls-1" cx="0.356" cy="0.356" r="0.356" transform="translate(7.273 1.001) rotate(-84.318)"/>
      <path id="Path_557" data-name="Path 557" class="cls-1" d="M248.658,54.323a.356.356,0,1,0-.356-.356A.356.356,0,0,0,248.658,54.323Z" transform="translate(-241.001 -51.098)"/>
      <path id="Path_558" data-name="Path 558" class="cls-1" d="M183.714,3.788h.033a2.251,2.251,0,0,1-.435.49.352.352,0,0,0,.422.565,3.114,3.114,0,0,0,1.109-2.017,1.143,1.143,0,1,0-1.129.963Zm0-1.581a.438.438,0,1,1-.438.438A.438.438,0,0,1,183.714,2.208Z" transform="translate(-178.351 -1.433)"/>
      <path id="Path_559" data-name="Path 559" class="cls-1" d="M281.872,3.615a1.144,1.144,0,0,0,1.143-1.143V1.209a1.143,1.143,0,1,0-2.285,0V2.473A1.144,1.144,0,0,0,281.872,3.615Zm-.438-2.407a.438.438,0,1,1,.876,0V2.473a.438.438,0,1,1-.876,0Z" transform="translate(-271.908 -0.063)"/>
      <path id="Path_560" data-name="Path 560" class="cls-1" d="M347.685,3.615a1.144,1.144,0,0,0,1.143-1.143V1.209a1.143,1.143,0,1,0-2.285,0V2.473A1.144,1.144,0,0,0,347.685,3.615Zm-.438-2.407a.438.438,0,0,1,.876,0V2.473a.438.438,0,0,1-.876,0Z" transform="translate(-334.636 -0.063)"/>
      <path id="Path_561" data-name="Path 561" class="cls-1" d="M117.844,3.549a1.144,1.144,0,0,0,1.143-1.143V1.143a1.143,1.143,0,0,0-2.285,0V2.407A1.144,1.144,0,0,0,117.844,3.549Zm-.438-2.407a.438.438,0,0,1,.876,0V2.407a.438.438,0,0,1-.876,0Z" transform="translate(-115.569 0)"/>
      <path id="Path_562" data-name="Path 562" class="cls-1" d="M107.878,100.216a7.662,7.662,0,0,0-12.11-6.238.352.352,0,1,0,.41.573,6.961,6.961,0,1,1-1.166,1.05.352.352,0,0,0-.527-.468,7.662,7.662,0,1,0,13.394,5.083Z" transform="translate(-92.555 -88.216)"/>
      <path id="Path_563" data-name="Path 563" class="cls-1" d="M135.5,134.877a.352.352,0,0,0,.494-.067,6.083,6.083,0,0,0,1.249-3.71,6.143,6.143,0,1,0-6.143,6.143,6.088,6.088,0,0,0,3.648-1.2.352.352,0,1,0-.419-.566c-.069.051-.14.1-.212.148l-.173-.3a.352.352,0,0,0-.61.352l.174.3a5.369,5.369,0,0,1-2.055.551v-.347a.352.352,0,1,0-.7,0v.348a5.4,5.4,0,0,1-2.055-.551l.174-.3a.352.352,0,0,0-.61-.352l-.173.3a5.483,5.483,0,0,1-1.5-1.5l.3-.173a.352.352,0,0,0-.352-.61l-.3.174a5.4,5.4,0,0,1-.551-2.055h.348a.352.352,0,1,0,0-.7h-.348a5.4,5.4,0,0,1,.551-2.055l.3.174a.352.352,0,1,0,.352-.61l-.3-.173a5.483,5.483,0,0,1,1.5-1.5l.173.3a.352.352,0,0,0,.61-.352l-.174-.3a5.4,5.4,0,0,1,2.055-.551v.348a.352.352,0,1,0,.7,0v-.348a5.4,5.4,0,0,1,2.055.551l-.174.3a.352.352,0,1,0,.61.352l.173-.3a5.482,5.482,0,0,1,1.5,1.5l-.3.173a.352.352,0,1,0,.352.61l.3-.174a5.4,5.4,0,0,1,.551,2.055h-.348a.352.352,0,1,0,0,.7h.347a5.364,5.364,0,0,1-.55,2.055l-.3-.174a.352.352,0,0,0-.352.61l.3.173c-.06.09-.123.179-.189.266A.352.352,0,0,0,135.5,134.877Z" transform="translate(-123.436 -119.1)"/>
      <path id="Path_564" data-name="Path 564" class="cls-1" d="M187.072,171.531a.352.352,0,0,0-.352.352v2.553a1.117,1.117,0,0,0-.7.7h-1.983a.352.352,0,1,0,0,.7h1.983a1.112,1.112,0,1,0,1.407-1.407v-2.553A.352.352,0,0,0,187.072,171.531Zm0,4.367a.407.407,0,1,1,.407-.407A.407.407,0,0,1,187.072,175.9Z" transform="translate(-179.41 -163.49)"/>
    </g>
  </g>
</svg>
